<svg xmlns="http://www.w3.org/2000/svg" viewBox="0 0 256 256" role="img" aria-label="Gestão Regulação">
  <defs>
    <linearGradient id="bg" x1="0" y1="0" x2="1" y2="1">
      <stop offset="0%" stop-color="#0f5fa8"/>
      <stop offset="100%" stop-color="#0a3564"/>
    </linearGradient>
    <linearGradient id="ring" x1="0" y1="0" x2="1" y2="1">
      <stop offset="0%" stop-color="#0d67b0"/>
      <stop offset="100%" stop-color="#5fb1ef"/>
    </linearGradient>
    <linearGradient id="arrow" x1="0" y1="1" x2="1" y2="0">
      <stop offset="0%" stop-color="#49a7ef"/>
      <stop offset="100%" stop-color="#0f5fa8"/>
    </linearGradient>
    <filter id="shadow" x="-20%" y="-20%" width="140%" height="140%">
      <feDropShadow dx="0" dy="6" stdDeviation="8" flood-color="#083155" flood-opacity="0.35"/>
    </filter>
  </defs>

  <rect x="14" y="14" width="228" height="228" rx="44" fill="url(#bg)"/>
  <circle cx="128" cy="104" r="76" fill="none" stroke="url(#ring)" stroke-width="24"/>
  <path d="M165 49l56 10-10 56-15-15c-10 37-41 64-78 69l-4-20c31-4 57-27 66-58l-15 1z" fill="url(#arrow)" filter="url(#shadow)"/>

  <g filter="url(#shadow)">
    <rect x="85" y="66" width="86" height="86" rx="18" fill="#ffffff"/>
    <rect x="117" y="45" width="22" height="128" rx="11" fill="#ffffff"/>
    <rect x="64" y="96" width="128" height="22" rx="11" fill="#ffffff"/>
  </g>

  <path d="M45 173c20 28 49 45 83 45 35 0 66-18 86-47" fill="none" stroke="#ffffff" stroke-width="10" stroke-linecap="round"/>
</svg>
